<?xml version="1.0" encoding="utf-8"?>
<!-- Generator: Adobe Illustrator 19.1.0, SVG Export Plug-In . SVG Version: 6.00 Build 0)  -->
<svg version="1.1" id="Layer_1" xmlns="http://www.w3.org/2000/svg" xmlns:xlink="http://www.w3.org/1999/xlink" x="0px" y="0px"
	 viewBox="0 0 38.1 38.1" style="enable-background:new 0 0 38.1 38.1;" xml:space="preserve">
<style type="text/css">
	.st0{fill:#A6A6A6;}
	.st1{fill:#FFFFFF;}
	.st2{fill:#FF0000;}
	.st3{fill:#FF8500;}
</style>
<path class="st0" d="M38.1,19c0-10.5-8.5-19-19-19C8.5,0,0,8.5,0,19c0,10.5,8.5,19,19,19C29.5,38.1,38.1,29.6,38.1,19"/>
<path class="st1" d="M20.6,8.1h-9.9v21.7l16.6,0V15.1h-6.7V8.1z M20.1,27h-5.9c-0.5,0-0.9-0.4-0.9-0.9c0-0.5,0.4-0.9,0.9-0.9h5.9
	c0.5,0,0.9,0.4,0.9,0.9C20.9,26.6,20.5,27,20.1,27 M23.9,23.4h-9.7c-0.5,0-0.9-0.4-0.9-0.9c0-0.5,0.4-0.9,0.9-0.9h9.7
	c0.5,0,0.9,0.4,0.9,0.9C24.7,23,24.4,23.4,23.9,23.4 M23.9,18c0.5,0,0.9,0.4,0.9,0.9c0,0.5-0.4,0.9-0.9,0.9h-9.7
	c-0.5,0-0.9-0.4-0.9-0.9c0-0.5,0.4-0.9,0.9-0.9H23.9z"/>
<polygon class="st1" points="22.5,8.1 22.3,8.1 22.3,13.4 27.3,13.4 "/>
</svg>
