<?xml version="1.0" encoding="utf-8"?>
<!-- Generator: Adobe Illustrator 19.1.0, SVG Export Plug-In . SVG Version: 6.00 Build 0)  -->
<svg version="1.1" id="Layer_1" xmlns="http://www.w3.org/2000/svg" xmlns:xlink="http://www.w3.org/1999/xlink" x="0px" y="0px"
	 viewBox="0 0 56 56" style="enable-background:new 0 0 56 56;" xml:space="preserve">
<style type="text/css">
	.st0{fill:#A6A6A6;}
	.st1{fill:#FFFFFF;}
	.st2{fill:#FF0000;}
	.st3{fill:#8DC63F;}
</style>
<g>
	<circle class="st0" cx="28" cy="28" r="28"/>
	<g>
		<path class="st1" d="M42,20.7c0,1.1-0.2,2.1-0.5,3.1c-0.3,1-0.7,1.7-1.1,2.3c-0.4,0.6-1,1.2-1.7,1.8c-0.7,0.6-1.3,1-1.7,1.3
			c-0.4,0.3-1.1,0.6-1.9,1.1c-0.8,0.5-1.5,1.1-2.1,2c-0.6,0.9-0.8,1.5-0.8,2c0,0.3-0.1,0.7-0.4,1c-0.2,0.3-0.5,0.5-0.9,0.5h-7.3
			c-0.3,0-0.6-0.2-0.8-0.6c-0.2-0.4-0.3-0.8-0.3-1.1v-1.4c0-1.7,0.7-3.3,2-4.8c1.3-1.5,2.8-2.6,4.4-3.3c1.2-0.5,2-1.1,2.6-1.7
			c0.5-0.6,0.8-1.4,0.8-2.3c0-0.9-0.5-1.6-1.4-2.3c-0.9-0.6-2-1-3.3-1c-1.3,0-2.4,0.3-3.3,0.9c-0.7,0.5-1.8,1.7-3.3,3.5
			c-0.3,0.3-0.6,0.5-0.9,0.5c-0.2,0-0.5-0.1-0.8-0.2l-5-3.8c-0.3-0.2-0.4-0.5-0.5-0.8c-0.1-0.3,0-0.6,0.2-0.9
			c3.2-5.4,7.9-8.1,14.1-8.1c1.6,0,3.3,0.3,4.9,0.9c1.6,0.6,3.1,1.5,4.4,2.5c1.3,1.1,2.4,2.3,3.2,3.9C41.6,17.4,42,19,42,20.7z
			 M32.4,39v7.3c0,0.3-0.1,0.6-0.4,0.9c-0.2,0.2-0.5,0.4-0.9,0.4h-7.3c-0.3,0-0.6-0.1-0.9-0.4c-0.2-0.2-0.4-0.5-0.4-0.9V39
			c0-0.3,0.1-0.6,0.4-0.9c0.2-0.2,0.5-0.4,0.9-0.4h7.3c0.3,0,0.6,0.1,0.9,0.4C32.2,38.3,32.4,38.6,32.4,39z"/>
	</g>
</g>
</svg>
