<?xml version="1.0" encoding="utf-8"?>
<!-- Generator: Adobe Illustrator 19.1.0, SVG Export Plug-In . SVG Version: 6.00 Build 0)  -->
<svg version="1.1" id="Layer_1" xmlns="http://www.w3.org/2000/svg" xmlns:xlink="http://www.w3.org/1999/xlink" x="0px" y="0px"
	 viewBox="0 0 56 56" style="enable-background:new 0 0 56 56;" xml:space="preserve">
<style type="text/css">
	.st0{fill:#A6A6A6;}
	.st1{fill:#FFFFFF;}
</style>
<path class="st0" d="M56,28c0,15.5-12.5,28-28,28C12.5,56,0,43.5,0,28C0,12.5,12.5,0,28,0C43.5,0,56,12.5,56,28z"/>
<g>
	<path class="st1" d="M24.1,32.1v-1.6c0-1.2,0.3-2.3,0.8-3.2c0.5-0.9,1.4-1.7,2.7-2.5c1-0.6,1.8-1.2,2.2-1.8s0.7-1.1,0.7-1.8
		c0-0.5-0.2-1-0.7-1.3s-1.1-0.5-1.9-0.5c-1.9,0-4.2,0.7-6.7,2l-2.6-5.2c3.2-1.8,6.5-2.7,9.9-2.7c2.8,0,5.1,0.6,6.7,1.9
		s2.4,2.9,2.4,5.1c0,1.5-0.4,2.9-1.1,4c-0.7,1.1-1.9,2.2-3.4,3.2c-1.3,0.9-2.2,1.5-2.5,1.9c-0.3,0.4-0.5,0.9-0.5,1.4v1H24.1z
		 M23.3,38.7c0-1.2,0.3-2.1,1-2.7s1.7-1,3-1c1.3,0,2.2,0.3,2.9,1c0.7,0.6,1,1.5,1,2.7s-0.4,2.1-1.1,2.7c-0.7,0.6-1.7,1-2.9,1
		c-1.3,0-2.2-0.3-3-0.9C23.7,40.8,23.3,39.9,23.3,38.7z"/>
</g>
</svg>
