<?xml version="1.0" encoding="utf-8"?>
<!-- Generator: Adobe Illustrator 19.1.0, SVG Export Plug-In . SVG Version: 6.00 Build 0)  -->
<svg version="1.1" id="Layer_1" xmlns="http://www.w3.org/2000/svg" xmlns:xlink="http://www.w3.org/1999/xlink" x="0px" y="0px"
	 viewBox="0 0 56 56" style="enable-background:new 0 0 56 56;" xml:space="preserve">
<style type="text/css">
	.st0{fill:#A6A6A6;}
	.st1{fill:#FFFFFF;}
	.st2{fill:#FF0000;}
	.st3{fill:#8DC63F;}
</style>
<g>
	<circle class="st2" cx="28" cy="28" r="28"/>
	<g>
		<path class="st1" d="M44.5,38.1c0,0.7-0.3,1.4-0.8,1.9l-3.8,3.8c-0.5,0.5-1.2,0.8-1.9,0.8s-1.4-0.3-1.9-0.8l-8.2-8.2l-8.2,8.2
			c-0.5,0.5-1.2,0.8-1.9,0.8c-0.7,0-1.4-0.3-1.9-0.8L12.1,40c-0.5-0.5-0.8-1.2-0.8-1.9c0-0.7,0.3-1.4,0.8-1.9l8.2-8.2l-8.2-8.2
			c-0.5-0.5-0.8-1.2-0.8-1.9c0-0.7,0.3-1.4,0.8-1.9l3.8-3.8c0.5-0.5,1.2-0.8,1.9-0.8c0.7,0,1.4,0.3,1.9,0.8l8.2,8.2l8.2-8.2
			c0.5-0.5,1.2-0.8,1.9-0.8s1.4,0.3,1.9,0.8l3.8,3.8c0.5,0.5,0.8,1.2,0.8,1.9c0,0.7-0.3,1.4-0.8,1.9L35.5,28l8.2,8.2
			C44.2,36.7,44.5,37.4,44.5,38.1z"/>
	</g>
</g>
</svg>
