<?xml version="1.0" encoding="utf-8"?>
<!-- Generator: Adobe Illustrator 19.1.0, SVG Export Plug-In . SVG Version: 6.00 Build 0)  -->
<svg version="1.1" id="Layer_1" xmlns="http://www.w3.org/2000/svg" xmlns:xlink="http://www.w3.org/1999/xlink" x="0px" y="0px"
	 viewBox="0 0 56 56" style="enable-background:new 0 0 56 56;" xml:space="preserve">
<style type="text/css">
	.st0{fill:#A6A6A6;}
	.st1{fill:#FFFFFF;}
</style>
<path class="st0" d="M56,28c0,15.5-12.5,28-28,28C12.5,56,0,43.5,0,28C0,12.5,12.5,0,28,0C43.5,0,56,12.5,56,28z"/>
<g>
	<path class="st1" d="M22.2,42.9c-5.1-7.6-11.2-12.6-11.3-12.7l-0.1-0.1l0.2,0c0.1,0,0.3,0,0.4,0c2.7,0,8.1,3.8,8.8,4.3
		c13.1-19.5,24.8-21.2,24.9-21.2l0.4-0.1l-0.4,0.2c-14.3,7.5-22.7,29.4-22.8,29.7L22.3,43L22.2,42.9z"/>
	<path class="st1" d="M45.1,13.1c-14.5,7.6-22.8,29.7-22.8,29.7c-5.2-7.7-11.3-12.7-11.3-12.7c0.1,0,0.3,0,0.4,0
		c2.9,0,8.8,4.3,8.8,4.3C33.4,14.7,45.1,13.1,45.1,13.1 M45.9,12.9L45.1,13c-0.1,0-3,0.4-7.6,3.2c-4.2,2.6-10.6,7.8-17.4,18
		C19.2,33.5,14,30,11.4,30c-0.2,0-0.3,0-0.5,0l-0.3,0.1l0.3,0.2c0.1,0,6.2,5,11.3,12.7l0.2,0.3l0.1-0.3c0.1-0.2,8.5-22.1,22.8-29.6
		L45.9,12.9L45.9,12.9z"/>
</g>
</svg>
