<?xml version="1.0" encoding="utf-8"?>
<!-- Generator: Adobe Illustrator 19.1.0, SVG Export Plug-In . SVG Version: 6.00 Build 0)  -->
<svg version="1.1" id="Layer_1" xmlns="http://www.w3.org/2000/svg" xmlns:xlink="http://www.w3.org/1999/xlink" x="0px" y="0px"
	 viewBox="0 0 240.3 39.5" style="enable-background:new 0 0 240.3 39.5;" xml:space="preserve">
<style type="text/css">
	.st0{fill:#8EC641;}
	.st1{fill:#FFFFFF;}
	.st2{fill:#9E9E9E;}
</style>
<circle class="st0" cx="74.2" cy="21" r="18.5"/>
<g>
	<path class="st1" d="M70.4,30.9c-3.4-5.1-7.4-8.4-7.5-8.4l-0.1-0.1l0.2,0c0.1,0,0.2,0,0.3,0c1.8,0,5.3,2.4,5.8,2.8
		c8.6-12.9,16.4-14,16.5-14L86,11l-0.4,0.2c-9.5,5-15,19.5-15.1,19.6L70.5,31L70.4,30.9z"/>
	<path class="st1" d="M85.5,11.2c-9.6,5-15.1,19.7-15.1,19.7C67,25.7,63,22.4,63,22.4c0.1,0,0.2,0,0.3,0c1.9,0,5.8,2.8,5.8,2.8
		C77.8,12.2,85.5,11.2,85.5,11.2 M86.4,10.9L85.5,11c-0.1,0-2,0.3-5,2.2c-2.8,1.7-7,5.2-11.5,11.8c-0.7-0.5-4-2.8-5.8-2.8
		c-0.1,0-0.2,0-0.3,0l-0.3,0.1l0.3,0.2c0,0,4.1,3.3,7.5,8.4l0.2,0.3l0.1-0.3c0,0,1.4-3.7,3.9-7.9c2.3-3.9,6.2-9.1,11.1-11.7
		L86.4,10.9L86.4,10.9z"/>
</g>
<g>
	<path class="st0" d="M20.1,5.6c-2.3-2-5.4-3-9.4-3H0v36.8h6.9V26.5h3c4.1,0,7.5-1.2,10-3.5c2.5-2.3,3.8-5.3,3.8-9
		C23.6,10.5,22.5,7.6,20.1,5.6z M6.9,9.1h3.2c5.7,0,6.5,2.8,6.5,5.3c0,1.9-0.5,3.2-1.7,4.2c-1.2,1-3,1.5-5.3,1.5H6.9V9.1z"/>
	<path class="st0" d="M47.7,26.9c-0.5-0.8-0.9-1.4-1.3-2c-0.4-0.6-0.8-1.2-1.2-1.6c-0.2-0.3-0.5-0.5-0.7-0.7
		c0.3-0.1,0.5-0.3,0.8-0.4c1.1-0.6,2-1.4,2.7-2.3c0.8-0.9,1.4-1.9,1.8-3.1c0.4-1.1,0.6-2.4,0.6-3.7c0-1.7-0.3-3.3-0.9-4.6
		C48.9,7.2,48,6,46.9,5.1c-1.1-0.9-2.3-1.5-3.8-2c-1.4-0.4-2.9-0.6-4.5-0.6H27.1v36.8H34V24.9h1.8c0.6,0,1.1,0.1,1.6,0.2
		c0.4,0.1,0.8,0.3,1.2,0.6c0.4,0.3,0.8,0.7,1.2,1.3c0.4,0.6,0.9,1.3,1.4,2.1l6.1,10.2h8.2L47.7,26.9z M34,9.1h4
		c1.9,0,3.2,0.4,4.1,1.2c0.8,0.7,1.3,1.8,1.3,3.1c0,0.8-0.1,1.5-0.4,2.2c-0.3,0.6-0.6,1.1-1.1,1.6c-0.5,0.4-1,0.8-1.7,1
		c-0.7,0.2-1.4,0.4-2.3,0.4H34V9.1z"/>
</g>
<g>
	<path class="st2" d="M116.9,7.4h-13.7v12.2h12.7v3.7h-12.7v15.6H99V3.6h17.9V7.4z"/>
	<path class="st2" d="M147.6,38.8H143l-3.7-9.9h-14.9l-3.5,9.9h-4.6l13.5-35.2h4.3L147.6,38.8z M137.9,25.3l-5.5-15
		c-0.2-0.5-0.4-1.3-0.5-2.4h-0.1c-0.2,1-0.4,1.8-0.6,2.4l-5.5,15H137.9z"/>
	<path class="st2" d="M176,37.4c-2.6,1.4-5.8,2.1-9.7,2.1c-5,0-9-1.6-12-4.8c-3-3.2-4.5-7.5-4.5-12.7c0-5.6,1.7-10.2,5.1-13.6
		c3.4-3.5,7.7-5.2,12.9-5.2c3.3,0,6.1,0.5,8.3,1.4v4.4c-2.5-1.4-5.3-2.1-8.3-2.1c-4,0-7.3,1.3-9.8,4c-2.5,2.7-3.8,6.3-3.8,10.8
		c0,4.3,1.2,7.7,3.5,10.2c2.3,2.5,5.4,3.8,9.2,3.8c3.5,0,6.6-0.8,9.2-2.4V37.4z"/>
	<path class="st2" d="M204,7.4h-10.2v31.5h-4.1V7.4h-10.1V3.6H204V7.4z"/>
	<path class="st2" d="M207.9,37.4v-4.9c0.6,0.5,1.2,0.9,2,1.3c0.8,0.4,1.6,0.7,2.5,1c0.9,0.3,1.7,0.5,2.6,0.6
		c0.9,0.1,1.7,0.2,2.4,0.2c2.5,0,4.4-0.5,5.7-1.4c1.3-0.9,1.9-2.3,1.9-4.1c0-0.9-0.2-1.8-0.6-2.5c-0.4-0.7-1-1.3-1.7-1.9
		c-0.7-0.6-1.6-1.1-2.6-1.7c-1-0.5-2.1-1.1-3.3-1.7c-1.2-0.6-2.4-1.3-3.4-1.9c-1.1-0.6-2-1.3-2.8-2.1c-0.8-0.8-1.4-1.6-1.9-2.6
		c-0.5-1-0.7-2.1-0.7-3.4c0-1.6,0.4-3,1.1-4.2c0.7-1.2,1.6-2.2,2.8-2.9c1.1-0.8,2.4-1.3,3.9-1.7c1.5-0.4,3-0.6,4.5-0.6
		c3.5,0,6,0.4,7.6,1.3v4.6c-2.1-1.4-4.7-2.2-8-2.2c-0.9,0-1.8,0.1-2.7,0.3c-0.9,0.2-1.7,0.5-2.4,0.9c-0.7,0.4-1.3,1-1.7,1.6
		c-0.4,0.7-0.7,1.5-0.7,2.5c0,0.9,0.2,1.7,0.5,2.3c0.3,0.7,0.8,1.3,1.5,1.8c0.7,0.5,1.5,1.1,2.4,1.6c0.9,0.5,2,1.1,3.3,1.7
		c1.3,0.6,2.5,1.3,3.6,2s2.1,1.4,3,2.3c0.9,0.8,1.5,1.8,2,2.8c0.5,1,0.7,2.2,0.7,3.5c0,1.7-0.3,3.2-1,4.4c-0.7,1.2-1.6,2.2-2.7,2.9
		c-1.2,0.8-2.5,1.3-4,1.6c-1.5,0.3-3.1,0.5-4.8,0.5c-0.6,0-1.2,0-2.1-0.1c-0.8-0.1-1.7-0.2-2.5-0.4c-0.9-0.2-1.7-0.4-2.4-0.6
		C208.9,38,208.3,37.7,207.9,37.4z"/>
</g>
<g>
	<path class="st2" d="M232.6,0.6h-1.5V0h3.7v0.6h-1.5V5h-0.7V0.6z"/>
	<path class="st2" d="M239.6,2.8c0-0.7-0.1-1.5-0.1-2.2h0c-0.2,0.6-0.4,1.2-0.6,1.9L238,5h-0.5l-0.8-2.4c-0.2-0.7-0.4-1.4-0.6-2h0
		c0,0.6-0.1,1.5-0.1,2.2L235.8,5h-0.6l0.4-5h0.8l0.9,2.4c0.2,0.6,0.4,1.2,0.5,1.7h0c0.1-0.5,0.3-1.1,0.5-1.7l0.9-2.4h0.8l0.3,5h-0.6
		L239.6,2.8z"/>
</g>
</svg>
