<?xml version="1.0" encoding="utf-8"?>
<!-- Generator: Adobe Illustrator 19.1.0, SVG Export Plug-In . SVG Version: 6.00 Build 0)  -->
<svg version="1.1" id="Layer_1" xmlns="http://www.w3.org/2000/svg" xmlns:xlink="http://www.w3.org/1999/xlink" x="0px" y="0px"
	 viewBox="0 0 56 56" style="enable-background:new 0 0 56 56;" xml:space="preserve">
<style type="text/css">
	.st0{fill:#A6A6A6;}
	.st1{fill:#FFFFFF;}
	.st2{fill:#FF0000;}
	.st3{fill:#8DC63F;}
</style>
<g>
	<circle class="st0" cx="28" cy="28" r="28"/>
	<g>
		<path class="st1" d="M46.8,19.2c0,0.7-0.2,1.2-0.7,1.7L28.5,38.5l-3.3,3.3c-0.5,0.5-1,0.7-1.7,0.7c-0.7,0-1.2-0.2-1.7-0.7
			l-3.3-3.3l-8.8-8.8C9.2,29.2,9,28.7,9,28c0-0.6,0.2-1.2,0.7-1.7l3.3-3.3c0.5-0.5,1-0.7,1.7-0.7c0.6,0,1.2,0.2,1.7,0.7l7.2,7.2
			l16-16c0.5-0.5,1-0.7,1.7-0.7s1.2,0.2,1.7,0.7l3.3,3.3C46.6,18,46.8,18.6,46.8,19.2z"/>
	</g>
</g>
</svg>
