<svg id="Layer_1" data-name="Layer 1" xmlns="http://www.w3.org/2000/svg" viewBox="0 0 38.07 38.07"><defs><style>.cls-1{fill:#8dc63f;}.cls-2{fill:#fff;}</style></defs><title>comliant-icon</title><path class="cls-1" d="M38.07,19a19,19,0,1,0-19,19,19,19,0,0,0,19-19"/><path class="cls-2" d="M20.63,8.14H10.74V29.89l16.58,0V15.13h-6.7v-7ZM20.08,27H14.21a0.86,0.86,0,0,1,0-1.72h5.87a0.86,0.86,0,0,1,0,1.72m3.81-3.63H14.21a0.86,0.86,0,0,1,0-1.72h9.68a0.86,0.86,0,0,1,0,1.72m0-5.34a0.86,0.86,0,0,1,0,1.72H14.21a0.86,0.86,0,0,1,0-1.72h9.68Z"/><polygon class="cls-2" points="22.5 8.14 22.35 8.14 22.35 13.42 27.3 13.42 22.5 8.14"/></svg>